<svg width="20" height="15" viewBox="0 0 20 15" fill="none" xmlns="http://www.w3.org/2000/svg">
<path d="M12.1512 12.8661L12.4237 12.8389L12.5934 13.0538C12.7767 13.286 13.1045 13.5106 13.583 13.7101C14.0547 13.9069 14.6316 14.0624 15.2646 14.1813C15.8615 14.2935 16.4951 14.3708 17.1166 14.4211C16.9478 14.2859 16.7892 14.1424 16.6482 13.9918C16.3391 13.6617 16.0677 13.248 16.0143 12.7697C15.9574 12.2593 16.1588 11.7778 16.5935 11.3648C17.2754 10.717 17.6553 10.2685 17.8668 9.85445C18.0673 9.46199 18.1336 9.06564 18.103 8.48076C18.0159 6.82102 17.1572 5.52498 15.7978 4.62752C14.4267 3.72232 12.5463 3.22729 10.4785 3.22729C8.43407 3.22729 6.60296 3.84026 5.29471 4.80691C3.98633 5.77365 3.22731 7.06893 3.22731 8.45457C3.22731 10.4227 4.65092 11.5934 6.60222 12.2561C8.54628 12.9164 10.84 12.9973 12.1512 12.8661Z" stroke="#888888"/>
<circle cx="4.5" cy="4.5" r="4.5" fill="white"/>
<path d="M1.36365 4.09094H6.81819" stroke="#888888"/>
<path d="M4.09094 1.36365V6.81819" stroke="#888888"/>
</svg>
