<svg width="104" height="20" viewBox="0 0 104 20" fill="none" xmlns="http://www.w3.org/2000/svg">
<path d="M2.52273 0.454545V15H0.761364V0.454545H2.52273ZM5.82706 15V4.09091H7.44638V5.79545H7.58842C7.8157 5.21307 8.18265 4.76089 8.68928 4.43892C9.1959 4.11222 9.80433 3.94886 10.5146 3.94886C11.2343 3.94886 11.8332 4.11222 12.3114 4.43892C12.7944 4.76089 13.1708 5.21307 13.4407 5.79545H13.5543C13.8337 5.23201 14.2527 4.78456 14.8114 4.45312C15.3701 4.11695 16.0401 3.94886 16.8214 3.94886C17.7968 3.94886 18.5946 4.25426 19.2148 4.86506C19.8351 5.47112 20.1452 6.41572 20.1452 7.69886V15H18.4691V7.69886C18.4691 6.89394 18.2489 6.31866 17.8086 5.97301C17.3683 5.62737 16.8498 5.45455 16.2532 5.45455C15.4862 5.45455 14.8919 5.68655 14.4705 6.15057C14.0491 6.60985 13.8384 7.19223 13.8384 7.89773V15H12.1339V7.52841C12.1339 6.90814 11.9326 6.40862 11.5302 6.02983C11.1277 5.64631 10.6093 5.45455 9.97479 5.45455C9.53918 5.45455 9.13198 5.57055 8.7532 5.80256C8.37914 6.03456 8.07611 6.35653 7.84411 6.76847C7.61683 7.17566 7.5032 7.64678 7.5032 8.18182V15H5.82706ZM22.8832 19.0909V4.09091H25.8661V5.9233H26.0011C26.1336 5.62973 26.3254 5.33144 26.5763 5.02841C26.832 4.72064 27.1635 4.46496 27.5707 4.26136C27.9826 4.05303 28.494 3.94886 29.1048 3.94886C29.9002 3.94886 30.6341 4.1572 31.3065 4.57386C31.9788 4.9858 32.5162 5.60843 32.9187 6.44176C33.3211 7.27036 33.5224 8.30966 33.5224 9.55966C33.5224 10.7765 33.3259 11.804 32.9329 12.642C32.5446 13.4754 32.0143 14.1075 31.342 14.5384C30.6744 14.9645 29.9263 15.1776 29.0977 15.1776C28.5105 15.1776 28.011 15.0805 27.5991 14.8864C27.1919 14.6922 26.8581 14.4484 26.5977 14.1548C26.3372 13.8565 26.1384 13.5559 26.0011 13.2528H25.9087V19.0909H22.8832ZM25.8448 9.54545C25.8448 10.1941 25.9348 10.7599 26.1147 11.2429C26.2946 11.7259 26.555 12.1023 26.896 12.3722C27.2369 12.6373 27.6512 12.7699 28.1388 12.7699C28.6313 12.7699 29.0479 12.6349 29.3888 12.3651C29.7298 12.0904 29.9878 11.7116 30.163 11.2287C30.3429 10.741 30.4329 10.1799 30.4329 9.54545C30.4329 8.91572 30.3453 8.36174 30.1701 7.88352C29.9949 7.4053 29.7369 7.03125 29.396 6.76136C29.055 6.49148 28.636 6.35653 28.1388 6.35653C27.6464 6.35653 27.2298 6.48674 26.8888 6.74716C26.5527 7.00758 26.2946 7.37689 26.1147 7.85511C25.9348 8.33333 25.8448 8.89678 25.8448 9.54545ZM35.5394 15V4.09091H38.4727V5.99432H38.5863C38.7852 5.31723 39.119 4.80587 39.5877 4.46023C40.0565 4.10985 40.5962 3.93466 41.207 3.93466C41.3585 3.93466 41.5219 3.94413 41.6971 3.96307C41.8723 3.98201 42.0262 4.00805 42.1587 4.04119V6.72585C42.0167 6.68324 41.8202 6.64536 41.5692 6.61222C41.3183 6.57907 41.0887 6.5625 40.8803 6.5625C40.4353 6.5625 40.0375 6.65956 39.6871 6.85369C39.3415 7.04309 39.0669 7.30824 38.8633 7.64915C38.6644 7.99006 38.565 8.38305 38.565 8.82812V15H35.5394ZM48.1442 15.2131C47.041 15.2131 46.0869 14.9787 45.282 14.5099C44.4818 14.0365 43.8639 13.3783 43.4283 12.5355C42.9927 11.688 42.7749 10.7055 42.7749 9.58807C42.7749 8.46117 42.9927 7.47633 43.4283 6.63352C43.8639 5.78598 44.4818 5.12784 45.282 4.65909C46.0869 4.18561 47.041 3.94886 48.1442 3.94886C49.2474 3.94886 50.1991 4.18561 50.9993 4.65909C51.8042 5.12784 52.4245 5.78598 52.8601 6.63352C53.2957 7.47633 53.5135 8.46117 53.5135 9.58807C53.5135 10.7055 53.2957 11.688 52.8601 12.5355C52.4245 13.3783 51.8042 14.0365 50.9993 14.5099C50.1991 14.9787 49.2474 15.2131 48.1442 15.2131ZM48.1584 12.8693C48.6603 12.8693 49.0793 12.7273 49.4155 12.4432C49.7517 12.1544 50.005 11.7614 50.1754 11.2642C50.3506 10.767 50.4382 10.2012 50.4382 9.56676C50.4382 8.93229 50.3506 8.36648 50.1754 7.86932C50.005 7.37216 49.7517 6.97917 49.4155 6.69034C49.0793 6.40151 48.6603 6.2571 48.1584 6.2571C47.6518 6.2571 47.2256 6.40151 46.88 6.69034C46.5391 6.97917 46.281 7.37216 46.1058 7.86932C45.9354 8.36648 45.8501 8.93229 45.8501 9.56676C45.8501 10.2012 45.9354 10.767 46.1058 11.2642C46.281 11.7614 46.5391 12.1544 46.88 12.4432C47.2256 12.7273 47.6518 12.8693 48.1584 12.8693ZM55.4808 15V4.09091H58.3643V6.01562H58.4922C58.7195 5.37642 59.0982 4.87216 59.6286 4.50284C60.1589 4.13352 60.7933 3.94886 61.532 3.94886C62.2801 3.94886 62.9169 4.13589 63.4425 4.50994C63.968 4.87926 64.3184 5.38116 64.4936 6.01562H64.6072C64.8298 5.39062 65.2322 4.8911 65.8146 4.51705C66.4018 4.13826 67.0954 3.94886 67.8956 3.94886C68.9136 3.94886 69.7398 4.2732 70.3743 4.92188C71.0135 5.56581 71.3331 6.47964 71.3331 7.66335V15H68.3146V8.25994C68.3146 7.65388 68.1536 7.19934 67.8317 6.89631C67.5097 6.59328 67.1072 6.44176 66.6243 6.44176C66.075 6.44176 65.6465 6.61695 65.3388 6.96733C65.031 7.31297 64.8771 7.76989 64.8771 8.33807V15H61.9439V8.19602C61.9439 7.66098 61.79 7.23485 61.4822 6.91761C61.1792 6.60038 60.7791 6.44176 60.282 6.44176C59.9458 6.44176 59.6428 6.52699 59.3729 6.69744C59.1077 6.86316 58.897 7.09754 58.7408 7.40057C58.5845 7.69886 58.5064 8.04924 58.5064 8.4517V15H55.4808ZM73.723 19.0909V4.09091H76.706V5.9233H76.8409C76.9735 5.62973 77.1652 5.33144 77.4162 5.02841C77.6719 4.72064 78.0033 4.46496 78.4105 4.26136C78.8224 4.05303 79.3338 3.94886 79.9446 3.94886C80.7401 3.94886 81.474 4.1572 82.1463 4.57386C82.8187 4.9858 83.3561 5.60843 83.7585 6.44176C84.161 7.27036 84.3622 8.30966 84.3622 9.55966C84.3622 10.7765 84.1657 11.804 83.7727 12.642C83.3845 13.4754 82.8542 14.1075 82.1818 14.5384C81.5142 14.9645 80.7661 15.1776 79.9375 15.1776C79.3504 15.1776 78.8509 15.0805 78.4389 14.8864C78.0317 14.6922 77.6979 14.4484 77.4375 14.1548C77.1771 13.8565 76.9782 13.5559 76.8409 13.2528H76.7486V19.0909H73.723ZM76.6847 9.54545C76.6847 10.1941 76.7746 10.7599 76.9545 11.2429C77.1345 11.7259 77.3949 12.1023 77.7358 12.3722C78.0767 12.6373 78.491 12.7699 78.9787 12.7699C79.4711 12.7699 79.8878 12.6349 80.2287 12.3651C80.5696 12.0904 80.8277 11.7116 81.0028 11.2287C81.1828 10.741 81.2727 10.1799 81.2727 9.54545C81.2727 8.91572 81.1851 8.36174 81.0099 7.88352C80.8348 7.4053 80.5767 7.03125 80.2358 6.76136C79.8949 6.49148 79.4759 6.35653 78.9787 6.35653C78.4863 6.35653 78.0696 6.48674 77.7287 6.74716C77.3925 7.00758 77.1345 7.37689 76.9545 7.85511C76.7746 8.33333 76.6847 8.89678 76.6847 9.54545ZM92.1818 4.09091V6.36364H85.6122V4.09091H92.1818ZM87.1037 1.47727H90.1293V11.6477C90.1293 11.9271 90.1719 12.1449 90.2571 12.3011C90.3423 12.4527 90.4607 12.5592 90.6122 12.6207C90.7685 12.6823 90.9484 12.7131 91.152 12.7131C91.294 12.7131 91.4361 12.7012 91.5781 12.6776C91.7202 12.6491 91.8291 12.6278 91.9048 12.6136L92.3807 14.8651C92.2292 14.9124 92.0161 14.9669 91.7415 15.0284C91.4669 15.0947 91.133 15.1349 90.7401 15.1491C90.0109 15.1776 89.3717 15.0805 88.8224 14.858C88.2779 14.6354 87.8542 14.2898 87.5511 13.821C87.2481 13.3523 87.099 12.7604 87.1037 12.0455V1.47727ZM101.354 10.5398V4.09091H103.031V15H101.354V13.1534H101.241C100.985 13.7074 100.587 14.1785 100.048 14.5668C99.5078 14.9503 98.826 15.142 98.0021 15.142C97.3203 15.142 96.7143 14.9929 96.1839 14.6946C95.6536 14.3916 95.237 13.937 94.9339 13.331C94.6309 12.7202 94.4794 11.9508 94.4794 11.0227V4.09091H96.1555V10.9091C96.1555 11.7045 96.3781 12.339 96.8232 12.8125C97.273 13.286 97.8459 13.5227 98.5419 13.5227C98.9586 13.5227 99.3823 13.4162 99.8132 13.2031C100.249 12.9901 100.613 12.6634 100.907 12.223C101.205 11.7827 101.354 11.2216 101.354 10.5398Z" fill="#ED3952"/>
</svg>
